# xmcd
#
# Track frame offsets: 
#        150
#        20615
#        35343
#        74203
#        97922
#        114817
#        148153
#        171177
#        189384
#        206679
#        223221
#        236431
#        252967
#        268977
#        282625
#        301809
#        320511
#        338763
#
# Disc length: 4745 seconds
#
# Revision: 0
# Processed by: cddbd v1.5.2PL0 Copyright (c) Steve Scherf et al.
# Submitted via: ExactAudioCopy v1.3
#
DISCID=17128712
DTITLE=Various Artist - Akella Presents - vol. 214 - Blues-Rock  CD1
DYEAR=2019
DGENRE=Blues
TTITLE0=Jay Hooks - All Your Lovin'
TTITLE1=Bonedryver - White Trash
TTITLE2=Mark Searcy - Monterey
TTITLE3=Andreas Diehlmann Band - I'm A King Bee
TTITLE4=Black Bottle Riot - The Little Things
TTITLE5=The Broken Bros Blues Band - My Woman Left Me
TTITLE6=Shaw Davis and The Black Ties - Fire Inside
TTITLE7=Juniper Inc. - Nowhere Train
TTITLE8=Alvaro Assmar - Lose My Faith
TTITLE9=Late Night Union - Behind The Mirror
TTITLE10=Reverend Jack - Midnight Rider
TTITLE11=Don Felder - American Rock 'n' Roll
TTITLE12=Eric Tessmer - Simple Solution
TTITLE13=Simon McBride - Grandma's Hands
TTITLE14=Red Rock Roosters - Don't Steal The Show
TTITLE15=Jimmy Barnes - I'm In A Bad Mood
TTITLE16=Robin Trower - Tell Me
TTITLE17=Gwyn Ashton - Soul for Sale
EXTD=
EXTT0=
EXTT1=
EXTT2=
EXTT3=
EXTT4=
EXTT5=
EXTT6=
EXTT7=
EXTT8=
EXTT9=
EXTT10=
EXTT11=
EXTT12=
EXTT13=
EXTT14=
EXTT15=
EXTT16=
EXTT17=
PLAYORDER=
